<mxfile host="app.diagrams.net" modified="2023-09-26T21:35:17.480Z" agent="Mozilla/5.0 (Windows NT 10.0; Win64; x64) AppleWebKit/537.36 (KHTML, like Gecko) Chrome/117.0.0.0 Safari/537.36 Edg/117.0.2045.41" etag="PiF-JSlj8izj7uYl4rFM" version="21.7.2" type="device">
  <diagram name="Page-1" id="Zanj2RTWN5whKDQgSMHk">
    <mxGraphModel dx="530" dy="302" grid="1" gridSize="10" guides="1" tooltips="1" connect="1" arrows="1" fold="1" page="1" pageScale="1" pageWidth="850" pageHeight="1100" math="1" shadow="0">
      <root>
        <mxCell id="0" />
        <mxCell id="1" parent="0" />
        <mxCell id="PEyJLY1w9u39bt7Y8O3g-34" value="" style="ellipse;whiteSpace=wrap;html=1;fillColor=none;strokeColor=#b85450;" vertex="1" parent="1">
          <mxGeometry x="271" y="229" width="16" height="70" as="geometry" />
        </mxCell>
        <mxCell id="PEyJLY1w9u39bt7Y8O3g-1" value="" style="ellipse;whiteSpace=wrap;html=1;fillColor=#f8cecc;strokeColor=#b85450;" vertex="1" parent="1">
          <mxGeometry x="140" y="170" width="30" height="110" as="geometry" />
        </mxCell>
        <mxCell id="PEyJLY1w9u39bt7Y8O3g-2" value="" style="ellipse;whiteSpace=wrap;html=1;fillColor=#f8cecc;strokeColor=#b85450;" vertex="1" parent="1">
          <mxGeometry x="400" y="280" width="30" height="70" as="geometry" />
        </mxCell>
        <mxCell id="PEyJLY1w9u39bt7Y8O3g-3" value="" style="ellipse;whiteSpace=wrap;html=1;fillColor=#d5e8d4;strokeColor=#82b366;" vertex="1" parent="1">
          <mxGeometry x="274" y="239" width="10" height="40" as="geometry" />
        </mxCell>
        <mxCell id="PEyJLY1w9u39bt7Y8O3g-4" value="" style="ellipse;whiteSpace=wrap;html=1;fillColor=#d5e8d4;strokeColor=#82b366;" vertex="1" parent="1">
          <mxGeometry x="530" y="300" width="10" height="30" as="geometry" />
        </mxCell>
        <mxCell id="PEyJLY1w9u39bt7Y8O3g-5" value="" style="curved=1;endArrow=none;html=1;rounded=0;exitX=0.5;exitY=0;exitDx=0;exitDy=0;entryX=0.5;entryY=0;entryDx=0;entryDy=0;endFill=0;fillColor=#f8cecc;strokeColor=#b85450;" edge="1" parent="1" source="PEyJLY1w9u39bt7Y8O3g-1" target="PEyJLY1w9u39bt7Y8O3g-2">
          <mxGeometry width="50" height="50" relative="1" as="geometry">
            <mxPoint x="440" y="370" as="sourcePoint" />
            <mxPoint x="490" y="320" as="targetPoint" />
            <Array as="points">
              <mxPoint x="290" y="240" />
            </Array>
          </mxGeometry>
        </mxCell>
        <mxCell id="PEyJLY1w9u39bt7Y8O3g-6" value="" style="curved=1;endArrow=none;html=1;rounded=0;exitX=0.5;exitY=1;exitDx=0;exitDy=0;entryX=0.5;entryY=1;entryDx=0;entryDy=0;endFill=0;fillColor=#f8cecc;strokeColor=#b85450;" edge="1" parent="1" source="PEyJLY1w9u39bt7Y8O3g-1" target="PEyJLY1w9u39bt7Y8O3g-2">
          <mxGeometry width="50" height="50" relative="1" as="geometry">
            <mxPoint x="165" y="180" as="sourcePoint" />
            <mxPoint x="425" y="290" as="targetPoint" />
            <Array as="points">
              <mxPoint x="300" y="290" />
            </Array>
          </mxGeometry>
        </mxCell>
        <mxCell id="PEyJLY1w9u39bt7Y8O3g-7" value="" style="ellipse;whiteSpace=wrap;html=1;fillColor=#B85450;strokeColor=#B85450;" vertex="1" parent="1">
          <mxGeometry x="413.5" y="313.5" width="3" height="3" as="geometry" />
        </mxCell>
        <mxCell id="PEyJLY1w9u39bt7Y8O3g-8" value="" style="ellipse;whiteSpace=wrap;html=1;fillColor=#B85450;strokeColor=#B85450;" vertex="1" parent="1">
          <mxGeometry x="153.5" y="223.5" width="3" height="3" as="geometry" />
        </mxCell>
        <mxCell id="PEyJLY1w9u39bt7Y8O3g-9" value="" style="curved=1;endArrow=none;html=1;rounded=0;exitX=0.341;exitY=0.478;exitDx=0;exitDy=0;entryX=0.495;entryY=0.588;entryDx=0;entryDy=0;endFill=0;exitPerimeter=0;entryPerimeter=0;dashed=1;fillColor=#f8cecc;strokeColor=#b85450;strokeOpacity=60;fillOpacity=100;" edge="1" parent="1" source="PEyJLY1w9u39bt7Y8O3g-8" target="PEyJLY1w9u39bt7Y8O3g-7">
          <mxGeometry width="50" height="50" relative="1" as="geometry">
            <mxPoint x="165" y="290" as="sourcePoint" />
            <mxPoint x="425" y="360" as="targetPoint" />
            <Array as="points">
              <mxPoint x="280" y="270" />
            </Array>
          </mxGeometry>
        </mxCell>
        <mxCell id="PEyJLY1w9u39bt7Y8O3g-43" value="$$\hat{\boldsymbol{r}}_1$$" style="edgeLabel;html=1;align=center;verticalAlign=middle;resizable=0;points=[];labelBackgroundColor=none;" vertex="1" connectable="0" parent="PEyJLY1w9u39bt7Y8O3g-9">
          <mxGeometry x="-0.4568" relative="1" as="geometry">
            <mxPoint as="offset" />
          </mxGeometry>
        </mxCell>
        <mxCell id="PEyJLY1w9u39bt7Y8O3g-17" value="" style="curved=1;endArrow=none;html=1;rounded=0;exitX=0.423;exitY=0.354;exitDx=0;exitDy=0;exitPerimeter=0;endFill=0;fillColor=#f8cecc;strokeColor=#823B39;" edge="1" parent="1" source="PEyJLY1w9u39bt7Y8O3g-8">
          <mxGeometry width="50" height="50" relative="1" as="geometry">
            <mxPoint x="230" y="320" as="sourcePoint" />
            <mxPoint x="280" y="260" as="targetPoint" />
            <Array as="points">
              <mxPoint x="180" y="250" />
              <mxPoint x="240" y="210" />
            </Array>
          </mxGeometry>
        </mxCell>
        <mxCell id="PEyJLY1w9u39bt7Y8O3g-38" value="$$\boldsymbol{r}$$" style="edgeLabel;html=1;align=center;verticalAlign=middle;resizable=0;points=[];labelBackgroundColor=none;" vertex="1" connectable="0" parent="PEyJLY1w9u39bt7Y8O3g-17">
          <mxGeometry x="0.0535" y="-6" relative="1" as="geometry">
            <mxPoint x="-19" y="-5" as="offset" />
          </mxGeometry>
        </mxCell>
        <mxCell id="PEyJLY1w9u39bt7Y8O3g-20" value="" style="curved=1;endArrow=none;html=1;rounded=0;endFill=0;exitX=0.667;exitY=0.286;exitDx=0;exitDy=0;exitPerimeter=0;dashed=1;dashPattern=8 8;entryX=0.436;entryY=0.327;entryDx=0;entryDy=0;entryPerimeter=0;fillColor=#f8cecc;strokeColor=#b85450;strokeOpacity=80;" edge="1" parent="1" source="PEyJLY1w9u39bt7Y8O3g-2" target="PEyJLY1w9u39bt7Y8O3g-26">
          <mxGeometry width="50" height="50" relative="1" as="geometry">
            <mxPoint x="440" y="300" as="sourcePoint" />
            <mxPoint x="280" y="260" as="targetPoint" />
            <Array as="points">
              <mxPoint x="370" y="280" />
              <mxPoint x="320" y="310" />
            </Array>
          </mxGeometry>
        </mxCell>
        <mxCell id="PEyJLY1w9u39bt7Y8O3g-21" value="" style="curved=1;endArrow=none;html=1;rounded=0;exitX=0.5;exitY=0;exitDx=0;exitDy=0;entryX=0.5;entryY=0;entryDx=0;entryDy=0;endFill=0;fillColor=#d5e8d4;strokeColor=#82b366;" edge="1" parent="1" source="PEyJLY1w9u39bt7Y8O3g-3" target="PEyJLY1w9u39bt7Y8O3g-4">
          <mxGeometry width="50" height="50" relative="1" as="geometry">
            <mxPoint x="274" y="240" as="sourcePoint" />
            <mxPoint x="534" y="350" as="targetPoint" />
            <Array as="points">
              <mxPoint x="409" y="310" />
            </Array>
          </mxGeometry>
        </mxCell>
        <mxCell id="PEyJLY1w9u39bt7Y8O3g-24" value="" style="curved=1;endArrow=none;html=1;rounded=0;exitX=0.5;exitY=1;exitDx=0;exitDy=0;entryX=0.5;entryY=1;entryDx=0;entryDy=0;endFill=0;fillColor=#d5e8d4;strokeColor=#82b366;" edge="1" parent="1" source="PEyJLY1w9u39bt7Y8O3g-3" target="PEyJLY1w9u39bt7Y8O3g-4">
          <mxGeometry width="50" height="50" relative="1" as="geometry">
            <mxPoint x="165" y="290" as="sourcePoint" />
            <mxPoint x="425" y="360" as="targetPoint" />
            <Array as="points">
              <mxPoint x="420" y="330" />
            </Array>
          </mxGeometry>
        </mxCell>
        <mxCell id="PEyJLY1w9u39bt7Y8O3g-25" value="" style="curved=1;endArrow=none;html=1;rounded=0;endFill=0;dashed=1;exitX=0.513;exitY=0.643;exitDx=0;exitDy=0;exitPerimeter=0;entryX=0.485;entryY=0.628;entryDx=0;entryDy=0;entryPerimeter=0;fillColor=#d5e8d4;strokeColor=#82b366;strokeOpacity=60;fillOpacity=100;" edge="1" parent="1" source="PEyJLY1w9u39bt7Y8O3g-26" target="PEyJLY1w9u39bt7Y8O3g-27">
          <mxGeometry width="50" height="50" relative="1" as="geometry">
            <mxPoint x="280" y="260" as="sourcePoint" />
            <mxPoint x="510" y="310" as="targetPoint" />
            <Array as="points">
              <mxPoint x="360" y="290" />
              <mxPoint x="440" y="315" />
            </Array>
          </mxGeometry>
        </mxCell>
        <mxCell id="PEyJLY1w9u39bt7Y8O3g-41" value="$$\hat{\boldsymbol{r}}_2$$" style="edgeLabel;html=1;align=center;verticalAlign=middle;resizable=0;points=[];labelBackgroundColor=none;" vertex="1" connectable="0" parent="PEyJLY1w9u39bt7Y8O3g-25">
          <mxGeometry x="0.4157" y="3" relative="1" as="geometry">
            <mxPoint x="13" y="3" as="offset" />
          </mxGeometry>
        </mxCell>
        <mxCell id="PEyJLY1w9u39bt7Y8O3g-26" value="" style="ellipse;whiteSpace=wrap;html=1;fillColor=#82B366;strokeColor=#82B366;" vertex="1" parent="1">
          <mxGeometry x="277.5" y="257.5" width="3" height="3" as="geometry" />
        </mxCell>
        <mxCell id="PEyJLY1w9u39bt7Y8O3g-27" value="" style="ellipse;whiteSpace=wrap;html=1;fillColor=#82B366;strokeColor=#82b366;" vertex="1" parent="1">
          <mxGeometry x="533.5" y="313.5" width="3" height="3" as="geometry" />
        </mxCell>
        <mxCell id="PEyJLY1w9u39bt7Y8O3g-29" value="" style="ellipse;whiteSpace=wrap;html=1;connectable=1;fillColor=#e1d5e7;strokeColor=#9673a6;" vertex="1" parent="1">
          <mxGeometry x="354" y="282" width="10" height="15" as="geometry" />
        </mxCell>
        <mxCell id="PEyJLY1w9u39bt7Y8O3g-31" value="" style="curved=1;endArrow=none;html=1;rounded=0;exitX=0.442;exitY=0.376;exitDx=0;exitDy=0;exitPerimeter=0;endFill=0;noJump=0;entryX=0.408;entryY=0.541;entryDx=0;entryDy=0;entryPerimeter=0;fillColor=#d5e8d4;strokeColor=#5D8049;" edge="1" parent="1" source="PEyJLY1w9u39bt7Y8O3g-26" target="PEyJLY1w9u39bt7Y8O3g-32">
          <mxGeometry width="50" height="50" relative="1" as="geometry">
            <mxPoint x="291.5" y="265" as="sourcePoint" />
            <mxPoint x="360" y="290" as="targetPoint" />
            <Array as="points">
              <mxPoint x="300" y="290" />
              <mxPoint x="330" y="280" />
            </Array>
          </mxGeometry>
        </mxCell>
        <mxCell id="PEyJLY1w9u39bt7Y8O3g-32" value="" style="ellipse;whiteSpace=wrap;html=1;fillColor=#9673A6;strokeColor=#9673A6;" vertex="1" parent="1">
          <mxGeometry x="357.5" y="288" width="3" height="3" as="geometry" />
        </mxCell>
        <mxCell id="PEyJLY1w9u39bt7Y8O3g-33" value="" style="curved=1;endArrow=none;html=1;rounded=0;exitX=0.347;exitY=0.496;exitDx=0;exitDy=0;exitPerimeter=0;endFill=0;noJump=0;fillColor=#d5e8d4;strokeColor=#82b366;anchorPointDirection=1;backgroundOutline=0;dashed=1;dashPattern=8 8;strokeOpacity=80;" edge="1" parent="1" source="PEyJLY1w9u39bt7Y8O3g-32">
          <mxGeometry width="50" height="50" relative="1" as="geometry">
            <mxPoint x="370" y="282.5" as="sourcePoint" />
            <mxPoint x="535" y="320" as="targetPoint" />
            <Array as="points">
              <mxPoint x="430" y="310" />
              <mxPoint x="470" y="300" />
              <mxPoint x="500" y="320" />
            </Array>
          </mxGeometry>
        </mxCell>
      </root>
    </mxGraphModel>
  </diagram>
</mxfile>
